<?xml version="1.0" encoding="utf-8"?>
<!-- Generator: Adobe Illustrator 16.0.0, SVG Export Plug-In . SVG Version: 6.00 Build 0)  -->
<!DOCTYPE svg PUBLIC "-//W3C//DTD SVG 1.1//EN" "http://www.w3.org/Graphics/SVG/1.1/DTD/svg11.dtd">
<svg version="1.1" id="Lager_1" xmlns="http://www.w3.org/2000/svg" xmlns:xlink="http://www.w3.org/1999/xlink" x="0px" y="0px"
	 width="565.391px" height="133.676px" viewBox="15.538 353.325 565.391 133.676"
	 enable-background="new 15.538 353.325 565.391 133.676" xml:space="preserve">
<g>
	<g>
		<g>
			<path d="M172.943,434.45c-6.193-4.245-13.906-6.261-20.629-7.679l-10.012-2.195l-0.162-0.034
				c-8.602-1.606-17.494-3.28-17.494-11.293c0-5.766,6.193-11.601,18.032-11.601c15.12,0,21.381,9.141,24.747,14.061l0.282,0.41
				l14.949-11.216l0.145-0.103l-0.111-0.153c-9.729-13.232-22.508-19.664-39.046-19.664c-11.267,0-20.851,2.836-27.753,8.226
				c-6.97,5.441-10.652,13.087-10.652,22.09c0,14.975,10.285,21.381,16.41,23.867c2.768,1.136,5.569,1.819,10.669,3.058l1.555,0.385
				l11.643,2.46c8.517,1.99,8.995,2.17,11.037,2.93l0.171,0.068c3.536,1.443,7.149,3.69,7.149,9.414
				c0,3.459-1.409,8.166-8.106,10.925c-3.613,1.443-7.423,1.632-10.336,1.632c-20.313,0-27.488-10.969-29.846-14.582l-0.103-0.153
				l-15.359,10.797l-0.145,0.103l0.094,0.146c6.825,11.079,17.452,16.145,25.174,18.434c5.228,1.461,11.045,2.195,17.314,2.195
				c11.079,0,21.142-2.579,28.351-7.252c8.457-5.484,12.924-13.796,12.924-24.021C183.834,446.563,180.169,439.405,172.943,434.45"
				/>
			<path d="M369.82,387.452v58.676c0,8.114,0,13.479-5.277,18.22c-5.451,4.75-12.916,4.75-15.359,4.75
				c-10.029,0-16.742-3.563-19.416-10.285c-1.238-3.357-1.23-6.91-1.223-10.686v-60.675h-18.449v57.855l0.008,0.991
				c0.137,11.216,0.162,14.223,1.367,18.382c2.707,8.952,10.182,16.324,19.979,19.698c5.023,1.769,10.637,2.623,17.18,2.623
				c12.24,0,22.098-3.204,29.299-9.499c10.232-8.722,10.336-17.904,10.48-28.539V387.46H369.82V387.452z"/>
		</g>
		<polygon points="426.437,467.858 426.437,442.344 473.009,442.344 473.009,426.352 426.437,426.352 426.437,403.989 
			477.39,403.989 477.39,387.452 408.251,387.452 408.251,484.533 480.816,484.533 480.816,467.858 		"/>
		<g>
			<path d="M517.103,404.262h9.396c11.967,0.137,14.992,0.256,20.201,2.588c9.885,4.75,14.686,14.59,14.686,30.103
				c0,10.78-1.623,23.772-14.266,28.736c-3.938,1.443-8.5,2.178-22.535,2.178h-7.49v-63.604H517.103z M562.232,395.02
				c-10.141-7.261-20.391-7.432-28.635-7.561h-34.945v97.073h31.145c11.063-0.129,21.527-0.248,31.18-5.911
				c12.684-7.321,19.953-22.552,19.953-41.797C580.939,426.122,578.511,406.474,562.232,395.02"/>
			<path d="M263.216,367.574c3.186-2.426,7.56-2.964,10.626-2.981c-0.846,2.981-2.52,6.979-5.74,9.423
				c-3.178,2.417-7.517,2.955-10.583,2.98C258.398,373.938,260.089,369.949,263.216,367.574 M218.874,365.798
				c0,0,0.017,0.017,0.026,0.017c9.336,8.295,13.778,15.7,15.991,20.553c-24.516,4.886-42.693,27.548-40.456,53.935
				c2.093,24.661,22.227,44.385,46.913,46.024c27.198,1.803,50.219-18.058,53.525-43.991h-16.854
				c-3.263,16.862-19.041,29.308-37.252,27.206c-15.47-1.776-27.89-14.214-29.65-29.691c-2.314-20.434,13.667-37.808,33.647-37.808
				c15.359,0,28.351,10.275,32.485,24.302h17.127c-3.451-17.938-16.426-32.52-33.425-38.294c4.323-0.436,9.542-1.726,13.958-5.091
				c5.826-4.425,8.585-11.003,9.875-15.743v0.009c1.563-5.732,1.811-11.156,1.811-11.156s-3.596-2.05-10.626-2.699
				c-4.467-0.214-12.941,0.188-19.587,5.236c-7.116,5.407-9.669,14.162-10.549,18.844c-5.023-10.917-14.129-18.964-17.144-21.424
				c-0.009-0.017-0.034-0.034-0.034-0.034L218.874,365.798z"/>
		</g>
	</g>
	<path d="M33.861,403.442h8.175c10.908,0,15.375,0.18,19.091,2.033c3.451,1.76,7.568,5.407,7.568,12.848
		c0,9.396-5.655,14.359-16.811,14.752l-1.324,0.052c-2.819,0.11-5.253,0.222-10.583,0.222h-6.125v-29.906H33.861z M68.465,445.154
		c3.647-1.146,18.955-7.125,18.955-26.687c0-12.548-5.843-19.971-10.754-23.985c-8.431-6.8-16.854-6.886-29.607-7.022l-31.52-0.008
		v97.081h18.314v-35.895h15.872l19.117,35.792l0.06,0.103H90L68.465,445.154z"/>
</g>
</svg>
